{
	"asset":{
		"generator":"Khronos glTF Blender I/O v4.3.47",
		"version":"2.0"
	},
	"scene":0,
	"scenes":[
		{
			"name":"Scene",
			"nodes":[
				3
			]
		}
	],
	"nodes":[
		{
			"mesh":0,
			"name":"cloak",
			"scale":[
				1.2944685220718384,
				1.2944685220718384,
				1.2944685220718384
			],
			"translation":[
				0,
				-0.13171148300170898,
				-0.10590039938688278
			]
		},
		{
			"mesh":1,
			"name":"pants",
			"scale":[
				1.1284840106964111,
				1.1284840106964111,
				1.1284840106964111
			],
			"translation":[
				-0.01940152794122696,
				0.4829082489013672,
				0.05069057270884514
			]
		},
		{
			"mesh":2,
			"name":"tuxedo",
			"scale":[
				1.2628065347671509,
				1.2628065347671509,
				1.2628065347671509
			],
			"translation":[
				0,
				0.4858884811401367,
				0
			]
		},
		{
			"children":[
				0,
				1,
				2
			],
			"mesh":3,
			"name":"Cube",
			"translation":[
				0,
				4.899240016937256,
				0
			]
		}
	],
	"materials":[
		{
			"doubleSided":true,
			"name":"Material.002",
			"pbrMetallicRoughness":{
				"baseColorFactor":[
					0.00945262610912323,
					0.07322089374065399,
					0.02020644024014473,
					1
				],
				"metallicFactor":0,
				"roughnessFactor":0.5
			}
		},
		{
			"doubleSided":true,
			"name":"pants",
			"pbrMetallicRoughness":{
				"baseColorFactor":[
					0.19120167195796967,
					0.10702301561832428,
					0.034339845180511475,
					1
				],
				"metallicFactor":0,
				"roughnessFactor":0.5
			}
		},
		{
			"doubleSided":true,
			"name":"brezrokavnik",
			"pbrMetallicRoughness":{
				"baseColorFactor":[
					0.05221721902489662,
					0.03084058128297329,
					0.011428087949752808,
					1
				],
				"metallicFactor":0,
				"roughnessFactor":0.5
			}
		},
		{
			"doubleSided":true,
			"name":"skin",
			"pbrMetallicRoughness":{
				"baseColorFactor":[
					0.7991024851799011,
					0.520995020866394,
					0.43965715169906616,
					1
				],
				"metallicFactor":0,
				"roughnessFactor":0.5
			}
		},
		{
			"doubleSided":true,
			"name":"shirt.001",
			"pbrMetallicRoughness":{
				"baseColorFactor":[
					0.9130977988243103,
					0.9130979776382446,
					0.9130988717079163,
					1
				],
				"metallicFactor":0,
				"roughnessFactor":0.5
			}
		}
	],
	"meshes":[
		{
			"name":"Cube.003",
			"primitives":[
				{
					"attributes":{
						"POSITION":0,
						"NORMAL":1,
						"TEXCOORD_0":2,
						"COLOR_0":3,
						"COLOR_1":4
					},
					"indices":5,
					"material":0
				}
			]
		},
		{
			"name":"Cube.004",
			"primitives":[
				{
					"attributes":{
						"POSITION":6,
						"NORMAL":7,
						"TEXCOORD_0":8
					},
					"indices":9,
					"material":1
				}
			]
		},
		{
			"name":"Cube.007",
			"primitives":[
				{
					"attributes":{
						"POSITION":10,
						"NORMAL":11,
						"TEXCOORD_0":12
					},
					"indices":13,
					"material":2
				}
			]
		},
		{
			"name":"Cube",
			"primitives":[
				{
					"attributes":{
						"POSITION":14,
						"NORMAL":15,
						"TEXCOORD_0":16
					},
					"indices":17,
					"material":3
				},
				{
					"attributes":{
						"POSITION":18,
						"NORMAL":19,
						"TEXCOORD_0":20
					},
					"indices":21,
					"material":4
				}
			]
		}
	],
	"accessors":[
		{
			"bufferView":0,
			"componentType":5126,
			"count":3050,
			"max":[
				1.51534903049469,
				1.2507827281951904,
				1.0728425979614258
			],
			"min":[
				-1.62078058719635,
				-3.25386118888855,
				-0.9288362264633179
			],
			"type":"VEC3"
		},
		{
			"bufferView":1,
			"componentType":5126,
			"count":3050,
			"type":"VEC3"
		},
		{
			"bufferView":2,
			"componentType":5126,
			"count":3050,
			"type":"VEC2"
		},
		{
			"bufferView":3,
			"componentType":5121,
			"count":3050,
			"normalized":true,
			"type":"VEC4"
		},
		{
			"bufferView":4,
			"componentType":5123,
			"count":3050,
			"normalized":true,
			"type":"VEC4"
		},
		{
			"bufferView":5,
			"componentType":5123,
			"count":4704,
			"type":"SCALAR"
		},
		{
			"bufferView":6,
			"componentType":5126,
			"count":1072,
			"max":[
				0.9240832328796387,
				-3.288069486618042,
				1.0048316717147827
			],
			"min":[
				-0.9240832328796387,
				-4.528115272521973,
				-0.5581684708595276
			],
			"type":"VEC3"
		},
		{
			"bufferView":7,
			"componentType":5126,
			"count":1072,
			"type":"VEC3"
		},
		{
			"bufferView":8,
			"componentType":5126,
			"count":1072,
			"type":"VEC2"
		},
		{
			"bufferView":9,
			"componentType":5123,
			"count":1632,
			"type":"SCALAR"
		},
		{
			"bufferView":10,
			"componentType":5126,
			"count":849,
			"max":[
				1.3919650316238403,
				-1.4331409931182861,
				1.2280900478363037
			],
			"min":[
				-1.383974313735962,
				-3.2096893787384033,
				-0.48523107171058655
			],
			"type":"VEC3"
		},
		{
			"bufferView":11,
			"componentType":5126,
			"count":849,
			"type":"VEC3"
		},
		{
			"bufferView":12,
			"componentType":5126,
			"count":849,
			"type":"VEC2"
		},
		{
			"bufferView":13,
			"componentType":5123,
			"count":1344,
			"type":"SCALAR"
		},
		{
			"bufferView":14,
			"componentType":5126,
			"count":3572,
			"max":[
				1.7061448097229004,
				1,
				1
			],
			"min":[
				-1.8714606761932373,
				-4.923131465911865,
				-1
			],
			"type":"VEC3"
		},
		{
			"bufferView":15,
			"componentType":5126,
			"count":3572,
			"type":"VEC3"
		},
		{
			"bufferView":16,
			"componentType":5126,
			"count":3572,
			"type":"VEC2"
		},
		{
			"bufferView":17,
			"componentType":5123,
			"count":5616,
			"type":"SCALAR"
		},
		{
			"bufferView":18,
			"componentType":5126,
			"count":3532,
			"max":[
				1.68766188621521,
				-1.4258286952972412,
				1.311239242553711
			],
			"min":[
				-1.8603239059448242,
				-4.263753890991211,
				-0.4830508530139923
			],
			"type":"VEC3"
		},
		{
			"bufferView":19,
			"componentType":5126,
			"count":3532,
			"type":"VEC3"
		},
		{
			"bufferView":20,
			"componentType":5126,
			"count":3532,
			"type":"VEC2"
		},
		{
			"bufferView":21,
			"componentType":5123,
			"count":5880,
			"type":"SCALAR"
		}
	],
	"bufferViews":[
		{
			"buffer":0,
			"byteLength":36600,
			"byteOffset":0,
			"target":34962
		},
		{
			"buffer":0,
			"byteLength":36600,
			"byteOffset":36600,
			"target":34962
		},
		{
			"buffer":0,
			"byteLength":24400,
			"byteOffset":73200,
			"target":34962
		},
		{
			"buffer":0,
			"byteLength":12200,
			"byteOffset":97600,
			"target":34962
		},
		{
			"buffer":0,
			"byteLength":24400,
			"byteOffset":109800,
			"target":34962
		},
		{
			"buffer":0,
			"byteLength":9408,
			"byteOffset":134200,
			"target":34963
		},
		{
			"buffer":0,
			"byteLength":12864,
			"byteOffset":143608,
			"target":34962
		},
		{
			"buffer":0,
			"byteLength":12864,
			"byteOffset":156472,
			"target":34962
		},
		{
			"buffer":0,
			"byteLength":8576,
			"byteOffset":169336,
			"target":34962
		},
		{
			"buffer":0,
			"byteLength":3264,
			"byteOffset":177912,
			"target":34963
		},
		{
			"buffer":0,
			"byteLength":10188,
			"byteOffset":181176,
			"target":34962
		},
		{
			"buffer":0,
			"byteLength":10188,
			"byteOffset":191364,
			"target":34962
		},
		{
			"buffer":0,
			"byteLength":6792,
			"byteOffset":201552,
			"target":34962
		},
		{
			"buffer":0,
			"byteLength":2688,
			"byteOffset":208344,
			"target":34963
		},
		{
			"buffer":0,
			"byteLength":42864,
			"byteOffset":211032,
			"target":34962
		},
		{
			"buffer":0,
			"byteLength":42864,
			"byteOffset":253896,
			"target":34962
		},
		{
			"buffer":0,
			"byteLength":28576,
			"byteOffset":296760,
			"target":34962
		},
		{
			"buffer":0,
			"byteLength":11232,
			"byteOffset":325336,
			"target":34963
		},
		{
			"buffer":0,
			"byteLength":42384,
			"byteOffset":336568,
			"target":34962
		},
		{
			"buffer":0,
			"byteLength":42384,
			"byteOffset":378952,
			"target":34962
		},
		{
			"buffer":0,
			"byteLength":28256,
			"byteOffset":421336,
			"target":34962
		},
		{
			"buffer":0,
			"byteLength":11760,
			"byteOffset":449592,
			"target":34963
		}
	],
	"buffers":[
		{
			"byteLength":461352,
			"uri":"frodo.bin"
		}
	]
}
