{
	"asset":{
		"generator":"Khronos glTF Blender I/O v4.3.47",
		"version":"2.0"
	},
	"extensionsUsed":[
		"EXT_texture_webp"
	],
	"scene":0,
	"scenes":[
		{
			"name":"Scene",
			"nodes":[
				14
			]
		}
	],
	"nodes":[
		{
			"mesh":0,
			"name":"Floor",
			"rotation":[
				0,
				0,
				-1,
				0
			],
			"scale":[
				-6.784854412078857,
				-0.21549475193023682,
				-5.356006145477295
			],
			"translation":[
				1.3275483846664429,
				0,
				0
			]
		},
		{
			"camera":0,
			"name":"Camera",
			"rotation":[
				-0.1736481487751007,
				0,
				0,
				0.9848077893257141
			],
			"translation":[
				-3.5233819484710693,
				7.723419666290283,
				8.37450122833252
			]
		},
		{
			"mesh":1,
			"name":"Trampoline",
			"rotation":[
				0,
				1,
				0,
				0
			],
			"scale":[
				-0.9453953504562378,
				-0.03987152501940727,
				-0.9453953504562378
			],
			"translation":[
				3.2757842540740967,
				0.7080867290496826,
				-2.143435478210449
			]
		},
		{
			"mesh":2,
			"name":"Cube.004",
			"scale":[
				1.1312170028686523,
				1.6877539157867432,
				0.9769625067710876
			],
			"translation":[
				6.337957382202148,
				1.75422203540802,
				-3.804999351501465
			]
		},
		{
			"mesh":3,
			"name":"doors1",
			"rotation":[
				0,
				0,
				-0.7071065902709961,
				0.7071070671081543
			],
			"scale":[
				1.0653212070465088,
				18.93267250061035,
				2.004068613052368
			],
			"translation":[
				25.256935119628906,
				-1.3818092346191406,
				0
			]
		},
		{
			"mesh":4,
			"name":"doors1.001",
			"rotation":[
				0,
				0,
				-0.7071065902709961,
				0.7071070671081543
			],
			"scale":[
				1.0653212070465088,
				18.93267250061035,
				2.004068613052368
			],
			"translation":[
				25.256935119628906,
				-1.3818092346191406,
				0
			]
		},
		{
			"children":[
				4,
				5
			],
			"mesh":5,
			"name":"doors",
			"rotation":[
				0,
				-1,
				0,
				1.6292068494294654e-07
			],
			"scale":[
				0.052818745374679565,
				0.9386839270591736,
				0.4989849328994751
			],
			"translation":[
				7.982004642486572,
				1.173255205154419,
				0
			]
		},
		{
			"mesh":6,
			"name":"key",
			"rotation":[
				0.7071068286895752,
				0.7071068286895752,
				8.241015166277066e-06,
				8.241016075771768e-06
			],
			"scale":[
				-0.13568724691867828,
				-0.13568724691867828,
				-0.13568724691867828
			],
			"translation":[
				6.8725361824035645,
				3.7111175060272217,
				-4.239201068878174
			]
		},
		{
			"mesh":7,
			"name":"Cube.017",
			"scale":[
				0.3116566240787506,
				0.3116566240787506,
				0.3116566240787506
			],
			"translation":[
				-1.8674973249435425,
				0.5485895872116089,
				-2.883439064025879
			]
		},
		{
			"mesh":8,
			"name":"MovingPlatform",
			"rotation":[
				0,
				1,
				0,
				0
			],
			"scale":[
				-0.747752845287323,
				-0.02161742001771927,
				-0.8219308853149414
			],
			"translation":[
				4.447509765625,
				2.804471969604492,
				-0.9770513772964478
			]
		},
		{
			"mesh":9,
			"name":"cloak",
			"scale":[
				1.2944684028625488,
				1.2944684028625488,
				1.2944684028625488
			],
			"translation":[
				0,
				-0.1317119598388672,
				-0.10589790344238281
			]
		},
		{
			"mesh":10,
			"name":"pants",
			"scale":[
				1.1284838914871216,
				1.1284838914871216,
				1.1284838914871216
			],
			"translation":[
				-0.01940155029296875,
				0.4829082489013672,
				0.05069160461425781
			]
		},
		{
			"mesh":11,
			"name":"tuxedo",
			"scale":[
				1.2628064155578613,
				1.2628064155578613,
				1.2628064155578613
			],
			"translation":[
				0,
				0.4858875274658203,
				0
			]
		},
		{
			"children":[
				10,
				11,
				12
			],
			"mesh":12,
			"name":"Player",
			"scale":[
				0.17237168550491333,
				0.17237168550491333,
				0.17237168550491333
			],
			"translation":[
				-3.570936918258667,
				3.3727078437805176,
				-3.755387306213379
			]
		},
		{
			"children":[
				0,
				1,
				2,
				3,
				6,
				7,
				8,
				9,
				13
			],
			"name":"Scene Collection"
		}
	],
	"cameras":[
		{
			"name":"Camera",
			"perspective":{
				"aspectRatio":1.7777777777777777,
				"yfov":0.39959648408210363,
				"zfar":100,
				"znear":0.10000000149011612
			},
			"type":"perspective"
		}
	],
	"materials":[
		{
			"doubleSided":true,
			"name":"Material",
			"pbrMetallicRoughness":{
				"baseColorTexture":{
					"index":0
				},
				"metallicFactor":0,
				"roughnessFactor":0.5
			}
		},
		{
			"doubleSided":true,
			"name":"Material.017",
			"pbrMetallicRoughness":{
				"baseColorTexture":{
					"index":1
				},
				"metallicFactor":0,
				"roughnessFactor":0.5
			}
		},
		{
			"doubleSided":true,
			"name":"Material.021",
			"pbrMetallicRoughness":{
				"baseColorTexture":{
					"index":2
				},
				"metallicFactor":0,
				"roughnessFactor":0.5
			}
		},
		{
			"doubleSided":true,
			"name":"Material.002",
			"pbrMetallicRoughness":{
				"baseColorTexture":{
					"index":3
				},
				"metallicFactor":0,
				"roughnessFactor":0.5
			}
		},
		{
			"doubleSided":true,
			"name":"Material.003",
			"pbrMetallicRoughness":{
				"baseColorTexture":{
					"index":4
				},
				"metallicFactor":0,
				"roughnessFactor":0.5
			}
		},
		{
			"doubleSided":true,
			"name":"Material.001",
			"pbrMetallicRoughness":{
				"baseColorTexture":{
					"index":5
				},
				"metallicFactor":0,
				"roughnessFactor":0.5
			}
		},
		{
			"doubleSided":true,
			"name":"Material.023",
			"pbrMetallicRoughness":{
				"baseColorTexture":{
					"index":6
				},
				"metallicFactor":0,
				"roughnessFactor":0.5
			}
		},
		{
			"doubleSided":true,
			"name":"Material.022",
			"pbrMetallicRoughness":{
				"baseColorTexture":{
					"index":7
				},
				"metallicFactor":0,
				"roughnessFactor":0.5
			}
		},
		{
			"doubleSided":true,
			"name":"Material.015",
			"pbrMetallicRoughness":{
				"baseColorTexture":{
					"index":8
				},
				"metallicFactor":0,
				"roughnessFactor":0.5
			}
		},
		{
			"doubleSided":true,
			"name":"pants.001",
			"pbrMetallicRoughness":{
				"baseColorTexture":{
					"index":9
				},
				"metallicFactor":0,
				"roughnessFactor":0.5
			}
		},
		{
			"doubleSided":true,
			"name":"brezrokavnik",
			"pbrMetallicRoughness":{
				"baseColorTexture":{
					"index":10
				},
				"metallicFactor":0,
				"roughnessFactor":0.5
			}
		},
		{
			"doubleSided":true,
			"name":"skin",
			"pbrMetallicRoughness":{
				"baseColorTexture":{
					"index":11
				},
				"metallicFactor":0,
				"roughnessFactor":0.46000003814697266
			}
		},
		{
			"doubleSided":true,
			"name":"shirt.001",
			"pbrMetallicRoughness":{
				"baseColorTexture":{
					"index":12
				},
				"metallicFactor":0,
				"roughnessFactor":0.5
			}
		}
	],
	"meshes":[
		{
			"name":"Cube",
			"primitives":[
				{
					"attributes":{
						"POSITION":0,
						"NORMAL":1,
						"TEXCOORD_0":2
					},
					"indices":3,
					"material":0
				}
			]
		},
		{
			"name":"Cylinder",
			"primitives":[
				{
					"attributes":{
						"POSITION":4,
						"NORMAL":5,
						"TEXCOORD_0":6
					},
					"indices":7,
					"material":1
				}
			]
		},
		{
			"name":"Cube.008",
			"primitives":[
				{
					"attributes":{
						"POSITION":8,
						"NORMAL":9,
						"TEXCOORD_0":10
					},
					"indices":11,
					"material":2
				}
			]
		},
		{
			"name":"Cylinder.002",
			"primitives":[
				{
					"attributes":{
						"POSITION":12,
						"NORMAL":13,
						"TEXCOORD_0":14
					},
					"indices":15,
					"material":3
				}
			]
		},
		{
			"name":"Cylinder.005",
			"primitives":[
				{
					"attributes":{
						"POSITION":16,
						"NORMAL":17,
						"TEXCOORD_0":18
					},
					"indices":15,
					"material":3
				}
			]
		},
		{
			"name":"Cube.015",
			"primitives":[
				{
					"attributes":{
						"POSITION":19,
						"NORMAL":20,
						"TEXCOORD_0":21
					},
					"indices":11,
					"material":4
				}
			]
		},
		{
			"name":"Torus.001",
			"primitives":[
				{
					"attributes":{
						"POSITION":22,
						"NORMAL":23,
						"TEXCOORD_0":24
					},
					"indices":25,
					"material":5
				}
			]
		},
		{
			"name":"Cube.019",
			"primitives":[
				{
					"attributes":{
						"POSITION":26,
						"NORMAL":27,
						"TEXCOORD_0":28
					},
					"indices":11,
					"material":6
				}
			]
		},
		{
			"name":"Cube.025",
			"primitives":[
				{
					"attributes":{
						"POSITION":29,
						"NORMAL":30,
						"TEXCOORD_0":31
					},
					"indices":11,
					"material":7
				}
			]
		},
		{
			"name":"Cube.006",
			"primitives":[
				{
					"attributes":{
						"POSITION":32,
						"NORMAL":33,
						"TEXCOORD_0":34,
						"COLOR_0":35,
						"COLOR_1":36,
						"COLOR_2":37
					},
					"indices":38,
					"material":8
				}
			]
		},
		{
			"name":"Cube.007",
			"primitives":[
				{
					"attributes":{
						"POSITION":39,
						"NORMAL":40,
						"TEXCOORD_0":41
					},
					"indices":42,
					"material":9
				}
			]
		},
		{
			"name":"Cube.009",
			"primitives":[
				{
					"attributes":{
						"POSITION":43,
						"NORMAL":44,
						"TEXCOORD_0":45
					},
					"indices":46,
					"material":10
				}
			]
		},
		{
			"name":"Cube.005",
			"primitives":[
				{
					"attributes":{
						"POSITION":47,
						"NORMAL":48,
						"TEXCOORD_0":49
					},
					"indices":50,
					"material":11
				},
				{
					"attributes":{
						"POSITION":51,
						"NORMAL":52,
						"TEXCOORD_0":53
					},
					"indices":54,
					"material":12
				}
			]
		}
	],
	"textures":[
		{
			"extensions":{
				"EXT_texture_webp":{
					"source":0
				}
			},
			"sampler":0,
			"source":1
		},
		{
			"extensions":{
				"EXT_texture_webp":{
					"source":2
				}
			},
			"sampler":0,
			"source":3
		},
		{
			"extensions":{
				"EXT_texture_webp":{
					"source":4
				}
			},
			"sampler":0,
			"source":5
		},
		{
			"extensions":{
				"EXT_texture_webp":{
					"source":6
				}
			},
			"sampler":0,
			"source":7
		},
		{
			"extensions":{
				"EXT_texture_webp":{
					"source":8
				}
			},
			"sampler":0,
			"source":9
		},
		{
			"extensions":{
				"EXT_texture_webp":{
					"source":10
				}
			},
			"sampler":0,
			"source":11
		},
		{
			"extensions":{
				"EXT_texture_webp":{
					"source":4
				}
			},
			"sampler":0,
			"source":5
		},
		{
			"extensions":{
				"EXT_texture_webp":{
					"source":12
				}
			},
			"sampler":0,
			"source":13
		},
		{
			"extensions":{
				"EXT_texture_webp":{
					"source":14
				}
			},
			"sampler":0,
			"source":15
		},
		{
			"extensions":{
				"EXT_texture_webp":{
					"source":16
				}
			},
			"sampler":0,
			"source":17
		},
		{
			"extensions":{
				"EXT_texture_webp":{
					"source":14
				}
			},
			"sampler":0,
			"source":15
		},
		{
			"extensions":{
				"EXT_texture_webp":{
					"source":18
				}
			},
			"sampler":0,
			"source":19
		},
		{
			"extensions":{
				"EXT_texture_webp":{
					"source":20
				}
			},
			"sampler":0,
			"source":21
		}
	],
	"images":[
		{
			"mimeType":"image/webp",
			"name":"oak_veneer_01",
			"uri":"oak_veneer_01.webp"
		},
		{
			"mimeType":"image/png",
			"name":"oak_veneer_01",
			"uri":"oak_veneer_01.png"
		},
		{
			"mimeType":"image/webp",
			"name":"Untitled",
			"uri":"Untitled.webp"
		},
		{
			"mimeType":"image/png",
			"name":"Untitled",
			"uri":"Untitled.png"
		},
		{
			"mimeType":"image/webp",
			"name":"rosewood_veneer1.webp",
			"uri":"rosewood_veneer1_webp.webp"
		},
		{
			"mimeType":"image/png",
			"name":"rosewood_veneer1.webp",
			"uri":"rosewood_veneer1_webp.png"
		},
		{
			"mimeType":"image/webp",
			"name":"Untitled",
			"uri":"Untitled-1.webp"
		},
		{
			"mimeType":"image/png",
			"name":"Untitled",
			"uri":"Untitled-1.png"
		},
		{
			"mimeType":"image/webp",
			"name":"Untitled",
			"uri":"Untitled-2.webp"
		},
		{
			"mimeType":"image/png",
			"name":"Untitled",
			"uri":"Untitled-2.png"
		},
		{
			"mimeType":"image/webp",
			"name":"Untitled",
			"uri":"Untitled-3.webp"
		},
		{
			"mimeType":"image/png",
			"name":"Untitled",
			"uri":"Untitled-3.png"
		},
		{
			"mimeType":"image/webp",
			"name":"Untitled",
			"uri":"Untitled-4.webp"
		},
		{
			"mimeType":"image/png",
			"name":"Untitled",
			"uri":"Untitled-4.png"
		},
		{
			"mimeType":"image/webp",
			"name":"CloakGreen",
			"uri":"CloakGreen.webp"
		},
		{
			"mimeType":"image/png",
			"name":"CloakGreen",
			"uri":"CloakGreen.png"
		},
		{
			"mimeType":"image/webp",
			"name":"PantsBrown",
			"uri":"PantsBrown.webp"
		},
		{
			"mimeType":"image/png",
			"name":"PantsBrown",
			"uri":"PantsBrown.png"
		},
		{
			"mimeType":"image/webp",
			"name":"Skin",
			"uri":"Skin.webp"
		},
		{
			"mimeType":"image/png",
			"name":"Skin",
			"uri":"Skin.png"
		},
		{
			"mimeType":"image/webp",
			"name":"white",
			"uri":"white.webp"
		},
		{
			"mimeType":"image/png",
			"name":"white",
			"uri":"white.png"
		}
	],
	"accessors":[
		{
			"bufferView":0,
			"componentType":5126,
			"count":530,
			"max":[
				1,
				1,
				1
			],
			"min":[
				-1,
				-1,
				-1
			],
			"type":"VEC3"
		},
		{
			"bufferView":1,
			"componentType":5126,
			"count":530,
			"type":"VEC3"
		},
		{
			"bufferView":2,
			"componentType":5126,
			"count":530,
			"type":"VEC2"
		},
		{
			"bufferView":3,
			"componentType":5123,
			"count":2376,
			"type":"SCALAR"
		},
		{
			"bufferView":4,
			"componentType":5126,
			"count":192,
			"max":[
				1,
				1,
				1
			],
			"min":[
				-1,
				-1,
				-1
			],
			"type":"VEC3"
		},
		{
			"bufferView":5,
			"componentType":5126,
			"count":192,
			"type":"VEC3"
		},
		{
			"bufferView":6,
			"componentType":5126,
			"count":192,
			"type":"VEC2"
		},
		{
			"bufferView":7,
			"componentType":5123,
			"count":372,
			"type":"SCALAR"
		},
		{
			"bufferView":8,
			"componentType":5126,
			"count":24,
			"max":[
				1,
				1,
				1
			],
			"min":[
				-1,
				-1,
				-1
			],
			"type":"VEC3"
		},
		{
			"bufferView":9,
			"componentType":5126,
			"count":24,
			"type":"VEC3"
		},
		{
			"bufferView":10,
			"componentType":5126,
			"count":24,
			"type":"VEC2"
		},
		{
			"bufferView":11,
			"componentType":5123,
			"count":36,
			"type":"SCALAR"
		},
		{
			"bufferView":12,
			"componentType":5126,
			"count":136,
			"max":[
				-1.2201733589172363,
				-1.1665468215942383,
				0.4008161425590515
			],
			"min":[
				-1.3393784761428833,
				-1.3405914306640625,
				0.28161096572875977
			],
			"type":"VEC3"
		},
		{
			"bufferView":13,
			"componentType":5126,
			"count":136,
			"type":"VEC3"
		},
		{
			"bufferView":14,
			"componentType":5126,
			"count":136,
			"type":"VEC2"
		},
		{
			"bufferView":15,
			"componentType":5123,
			"count":210,
			"type":"SCALAR"
		},
		{
			"bufferView":16,
			"componentType":5126,
			"count":136,
			"max":[
				-1.2201733589172363,
				-1.1665468215942383,
				0.4008161425590515
			],
			"min":[
				-1.3393784761428833,
				-1.3405914306640625,
				0.28161096572875977
			],
			"type":"VEC3"
		},
		{
			"bufferView":17,
			"componentType":5126,
			"count":136,
			"type":"VEC3"
		},
		{
			"bufferView":18,
			"componentType":5126,
			"count":136,
			"type":"VEC2"
		},
		{
			"bufferView":19,
			"componentType":5126,
			"count":24,
			"max":[
				1,
				1,
				1
			],
			"min":[
				-1,
				-1,
				-1
			],
			"type":"VEC3"
		},
		{
			"bufferView":20,
			"componentType":5126,
			"count":24,
			"type":"VEC3"
		},
		{
			"bufferView":21,
			"componentType":5126,
			"count":24,
			"type":"VEC2"
		},
		{
			"bufferView":22,
			"componentType":5126,
			"count":452,
			"max":[
				1.25,
				0.25,
				3.503342628479004
			],
			"min":[
				-1.25,
				-0.25,
				-1.0825319290161133
			],
			"type":"VEC3"
		},
		{
			"bufferView":23,
			"componentType":5126,
			"count":452,
			"type":"VEC3"
		},
		{
			"bufferView":24,
			"componentType":5126,
			"count":452,
			"type":"VEC2"
		},
		{
			"bufferView":25,
			"componentType":5123,
			"count":840,
			"type":"SCALAR"
		},
		{
			"bufferView":26,
			"componentType":5126,
			"count":24,
			"max":[
				1,
				1,
				1
			],
			"min":[
				-1,
				-1,
				-1
			],
			"type":"VEC3"
		},
		{
			"bufferView":27,
			"componentType":5126,
			"count":24,
			"type":"VEC3"
		},
		{
			"bufferView":28,
			"componentType":5126,
			"count":24,
			"type":"VEC2"
		},
		{
			"bufferView":29,
			"componentType":5126,
			"count":24,
			"max":[
				1,
				1,
				1
			],
			"min":[
				-1,
				-1,
				-1
			],
			"type":"VEC3"
		},
		{
			"bufferView":30,
			"componentType":5126,
			"count":24,
			"type":"VEC3"
		},
		{
			"bufferView":31,
			"componentType":5126,
			"count":24,
			"type":"VEC2"
		},
		{
			"bufferView":32,
			"componentType":5126,
			"count":3094,
			"max":[
				1.51534903049469,
				1.2507827281951904,
				1.0728425979614258
			],
			"min":[
				-1.62078058719635,
				-3.25386118888855,
				-0.9288362264633179
			],
			"type":"VEC3"
		},
		{
			"bufferView":33,
			"componentType":5126,
			"count":3094,
			"type":"VEC3"
		},
		{
			"bufferView":34,
			"componentType":5126,
			"count":3094,
			"type":"VEC2"
		},
		{
			"bufferView":35,
			"componentType":5121,
			"count":3094,
			"normalized":true,
			"type":"VEC4"
		},
		{
			"bufferView":36,
			"componentType":5123,
			"count":3094,
			"normalized":true,
			"type":"VEC4"
		},
		{
			"bufferView":37,
			"componentType":5123,
			"count":3094,
			"normalized":true,
			"type":"VEC4"
		},
		{
			"bufferView":38,
			"componentType":5123,
			"count":4704,
			"type":"SCALAR"
		},
		{
			"bufferView":39,
			"componentType":5126,
			"count":1116,
			"max":[
				0.9240832328796387,
				-3.288069486618042,
				1.0048316717147827
			],
			"min":[
				-0.9240832328796387,
				-4.528115272521973,
				-0.5581684708595276
			],
			"type":"VEC3"
		},
		{
			"bufferView":40,
			"componentType":5126,
			"count":1116,
			"type":"VEC3"
		},
		{
			"bufferView":41,
			"componentType":5126,
			"count":1116,
			"type":"VEC2"
		},
		{
			"bufferView":42,
			"componentType":5123,
			"count":1632,
			"type":"SCALAR"
		},
		{
			"bufferView":43,
			"componentType":5126,
			"count":920,
			"max":[
				1.3919650316238403,
				-1.4331409931182861,
				1.2280900478363037
			],
			"min":[
				-1.383974313735962,
				-3.2096893787384033,
				-0.48523107171058655
			],
			"type":"VEC3"
		},
		{
			"bufferView":44,
			"componentType":5126,
			"count":920,
			"type":"VEC3"
		},
		{
			"bufferView":45,
			"componentType":5126,
			"count":920,
			"type":"VEC2"
		},
		{
			"bufferView":46,
			"componentType":5123,
			"count":1344,
			"type":"SCALAR"
		},
		{
			"bufferView":47,
			"componentType":5126,
			"count":3717,
			"max":[
				1.7061448097229004,
				1,
				1
			],
			"min":[
				-1.8714606761932373,
				-4.923131465911865,
				-1
			],
			"type":"VEC3"
		},
		{
			"bufferView":48,
			"componentType":5126,
			"count":3717,
			"type":"VEC3"
		},
		{
			"bufferView":49,
			"componentType":5126,
			"count":3717,
			"type":"VEC2"
		},
		{
			"bufferView":50,
			"componentType":5123,
			"count":5616,
			"type":"SCALAR"
		},
		{
			"bufferView":51,
			"componentType":5126,
			"count":3698,
			"max":[
				1.68766188621521,
				-1.4258286952972412,
				1.311239242553711
			],
			"min":[
				-1.8603239059448242,
				-4.263753890991211,
				-0.4830508530139923
			],
			"type":"VEC3"
		},
		{
			"bufferView":52,
			"componentType":5126,
			"count":3698,
			"type":"VEC3"
		},
		{
			"bufferView":53,
			"componentType":5126,
			"count":3698,
			"type":"VEC2"
		},
		{
			"bufferView":54,
			"componentType":5123,
			"count":5880,
			"type":"SCALAR"
		}
	],
	"bufferViews":[
		{
			"buffer":0,
			"byteLength":6360,
			"byteOffset":0,
			"target":34962
		},
		{
			"buffer":0,
			"byteLength":6360,
			"byteOffset":6360,
			"target":34962
		},
		{
			"buffer":0,
			"byteLength":4240,
			"byteOffset":12720,
			"target":34962
		},
		{
			"buffer":0,
			"byteLength":4752,
			"byteOffset":16960,
			"target":34963
		},
		{
			"buffer":0,
			"byteLength":2304,
			"byteOffset":21712,
			"target":34962
		},
		{
			"buffer":0,
			"byteLength":2304,
			"byteOffset":24016,
			"target":34962
		},
		{
			"buffer":0,
			"byteLength":1536,
			"byteOffset":26320,
			"target":34962
		},
		{
			"buffer":0,
			"byteLength":744,
			"byteOffset":27856,
			"target":34963
		},
		{
			"buffer":0,
			"byteLength":288,
			"byteOffset":28600,
			"target":34962
		},
		{
			"buffer":0,
			"byteLength":288,
			"byteOffset":28888,
			"target":34962
		},
		{
			"buffer":0,
			"byteLength":192,
			"byteOffset":29176,
			"target":34962
		},
		{
			"buffer":0,
			"byteLength":72,
			"byteOffset":29368,
			"target":34963
		},
		{
			"buffer":0,
			"byteLength":1632,
			"byteOffset":29440,
			"target":34962
		},
		{
			"buffer":0,
			"byteLength":1632,
			"byteOffset":31072,
			"target":34962
		},
		{
			"buffer":0,
			"byteLength":1088,
			"byteOffset":32704,
			"target":34962
		},
		{
			"buffer":0,
			"byteLength":420,
			"byteOffset":33792,
			"target":34963
		},
		{
			"buffer":0,
			"byteLength":1632,
			"byteOffset":34212,
			"target":34962
		},
		{
			"buffer":0,
			"byteLength":1632,
			"byteOffset":35844,
			"target":34962
		},
		{
			"buffer":0,
			"byteLength":1088,
			"byteOffset":37476,
			"target":34962
		},
		{
			"buffer":0,
			"byteLength":288,
			"byteOffset":38564,
			"target":34962
		},
		{
			"buffer":0,
			"byteLength":288,
			"byteOffset":38852,
			"target":34962
		},
		{
			"buffer":0,
			"byteLength":192,
			"byteOffset":39140,
			"target":34962
		},
		{
			"buffer":0,
			"byteLength":5424,
			"byteOffset":39332,
			"target":34962
		},
		{
			"buffer":0,
			"byteLength":5424,
			"byteOffset":44756,
			"target":34962
		},
		{
			"buffer":0,
			"byteLength":3616,
			"byteOffset":50180,
			"target":34962
		},
		{
			"buffer":0,
			"byteLength":1680,
			"byteOffset":53796,
			"target":34963
		},
		{
			"buffer":0,
			"byteLength":288,
			"byteOffset":55476,
			"target":34962
		},
		{
			"buffer":0,
			"byteLength":288,
			"byteOffset":55764,
			"target":34962
		},
		{
			"buffer":0,
			"byteLength":192,
			"byteOffset":56052,
			"target":34962
		},
		{
			"buffer":0,
			"byteLength":288,
			"byteOffset":56244,
			"target":34962
		},
		{
			"buffer":0,
			"byteLength":288,
			"byteOffset":56532,
			"target":34962
		},
		{
			"buffer":0,
			"byteLength":192,
			"byteOffset":56820,
			"target":34962
		},
		{
			"buffer":0,
			"byteLength":37128,
			"byteOffset":57012,
			"target":34962
		},
		{
			"buffer":0,
			"byteLength":37128,
			"byteOffset":94140,
			"target":34962
		},
		{
			"buffer":0,
			"byteLength":24752,
			"byteOffset":131268,
			"target":34962
		},
		{
			"buffer":0,
			"byteLength":12376,
			"byteOffset":156020,
			"target":34962
		},
		{
			"buffer":0,
			"byteLength":24752,
			"byteOffset":168396,
			"target":34962
		},
		{
			"buffer":0,
			"byteLength":24752,
			"byteOffset":193148,
			"target":34962
		},
		{
			"buffer":0,
			"byteLength":9408,
			"byteOffset":217900,
			"target":34963
		},
		{
			"buffer":0,
			"byteLength":13392,
			"byteOffset":227308,
			"target":34962
		},
		{
			"buffer":0,
			"byteLength":13392,
			"byteOffset":240700,
			"target":34962
		},
		{
			"buffer":0,
			"byteLength":8928,
			"byteOffset":254092,
			"target":34962
		},
		{
			"buffer":0,
			"byteLength":3264,
			"byteOffset":263020,
			"target":34963
		},
		{
			"buffer":0,
			"byteLength":11040,
			"byteOffset":266284,
			"target":34962
		},
		{
			"buffer":0,
			"byteLength":11040,
			"byteOffset":277324,
			"target":34962
		},
		{
			"buffer":0,
			"byteLength":7360,
			"byteOffset":288364,
			"target":34962
		},
		{
			"buffer":0,
			"byteLength":2688,
			"byteOffset":295724,
			"target":34963
		},
		{
			"buffer":0,
			"byteLength":44604,
			"byteOffset":298412,
			"target":34962
		},
		{
			"buffer":0,
			"byteLength":44604,
			"byteOffset":343016,
			"target":34962
		},
		{
			"buffer":0,
			"byteLength":29736,
			"byteOffset":387620,
			"target":34962
		},
		{
			"buffer":0,
			"byteLength":11232,
			"byteOffset":417356,
			"target":34963
		},
		{
			"buffer":0,
			"byteLength":44376,
			"byteOffset":428588,
			"target":34962
		},
		{
			"buffer":0,
			"byteLength":44376,
			"byteOffset":472964,
			"target":34962
		},
		{
			"buffer":0,
			"byteLength":29584,
			"byteOffset":517340,
			"target":34962
		},
		{
			"buffer":0,
			"byteLength":11760,
			"byteOffset":546924,
			"target":34963
		}
	],
	"samplers":[
		{
			"magFilter":9729,
			"minFilter":9987
		}
	],
	"buffers":[
		{
			"byteLength":558684,
			"uri":"frodomap.bin"
		}
	]
}
