{
	"asset":{
		"generator":"Khronos glTF Blender I/O v4.3.47",
		"version":"2.0"
	},
	"scene":0,
	"scenes":[
		{
			"name":"Scene",
			"nodes":[
				11
			]
		}
	],
	"nodes":[
		{
			"mesh":0,
			"name":"Floor",
			"rotation":[
				0,
				0,
				-1,
				0
			],
			"scale":[
				-6.784854412078857,
				-0.21549475193023682,
				-5.356006145477295
			],
			"translation":[
				1.3275483846664429,
				0,
				0
			]
		},
		{
			"camera":0,
			"name":"Camera",
			"rotation":[
				-0.1736481487751007,
				0,
				0,
				0.9848077893257141
			],
			"translation":[
				-3.5233819484710693,
				6.103419303894043,
				4.71579122543335
			]
		},
		{
			"mesh":1,
			"name":"Trampoline",
			"rotation":[
				0,
				1,
				0,
				0
			],
			"scale":[
				-0.9453953504562378,
				-0.03987152501940727,
				-0.9453953504562378
			],
			"translation":[
				3.2757842540740967,
				0.7080867290496826,
				-2.143435478210449
			]
		},
		{
			"mesh":2,
			"name":"key",
			"rotation":[
				0.7071068286895752,
				0.7071068286895752,
				8.241015166277066e-06,
				8.241016075771768e-06
			],
			"scale":[
				-0.13568724691867828,
				-0.13568724691867828,
				-0.13568724691867828
			],
			"translation":[
				6.8725361824035645,
				3.7111175060272217,
				-4.239201068878174
			]
		},
		{
			"mesh":3,
			"name":"Cube.017",
			"scale":[
				0.20612390339374542,
				0.20612390339374542,
				0.20612390339374542
			],
			"translation":[
				-1.8674973249435425,
				0.4093160033226013,
				-2.883439064025879
			]
		},
		{
			"mesh":4,
			"name":"MovingPlatform",
			"rotation":[
				0,
				1,
				0,
				0
			],
			"scale":[
				-0.747752845287323,
				-0.02161742001771927,
				-0.8219308853149414
			],
			"translation":[
				4.447509765625,
				2.804471969604492,
				-0.9770513772964478
			]
		},
		{
			"mesh":5,
			"name":"body",
			"scale":[
				0.38956505060195923,
				0.38956505060195923,
				0.38956505060195923
			],
			"translation":[
				-3.4483282566070557,
				4.050761699676514,
				-2.6940813064575195
			]
		},
		{
			"mesh":6,
			"name":"cloak",
			"scale":[
				0.38956505060195923,
				0.38956505060195923,
				0.38956505060195923
			],
			"translation":[
				-3.4483282566070557,
				3.1354784965515137,
				-2.6940813064575195
			]
		},
		{
			"mesh":7,
			"name":"pants.001",
			"scale":[
				0.38956505060195923,
				0.38956505060195923,
				0.38956505060195923
			],
			"translation":[
				-3.4483282566070557,
				4.050761699676514,
				-2.6940813064575195
			]
		},
		{
			"mesh":8,
			"name":"tuxedo",
			"scale":[
				0.38956505060195923,
				0.38956505060195923,
				0.38956505060195923
			],
			"translation":[
				-3.4483282566070557,
				4.050761699676514,
				-2.6940813064575195
			]
		},
		{
			"children":[
				6,
				7,
				8,
				9
			],
			"name":"Player"
		},
		{
			"children":[
				0,
				1,
				2,
				3,
				4,
				5,
				10
			],
			"name":"Scene Collection"
		}
	],
	"cameras":[
		{
			"name":"Camera",
			"perspective":{
				"aspectRatio":1.7777777777777777,
				"yfov":0.39959648408210363,
				"zfar":100,
				"znear":0.10000000149011612
			},
			"type":"perspective"
		}
	],
	"materials":[
		{
			"doubleSided":true,
			"name":"Material",
			"pbrMetallicRoughness":{
				"baseColorTexture":{
					"index":0
				},
				"metallicFactor":0,
				"roughnessFactor":0.5
			}
		},
		{
			"doubleSided":true,
			"name":"Material.017",
			"pbrMetallicRoughness":{
				"baseColorTexture":{
					"index":1
				},
				"metallicFactor":0,
				"roughnessFactor":0.5
			}
		},
		{
			"doubleSided":true,
			"name":"Material.001",
			"pbrMetallicRoughness":{
				"baseColorTexture":{
					"index":2
				},
				"metallicFactor":0,
				"roughnessFactor":0.5
			}
		},
		{
			"doubleSided":true,
			"name":"Material.023",
			"pbrMetallicRoughness":{
				"baseColorTexture":{
					"index":3
				},
				"metallicFactor":0,
				"roughnessFactor":0.5
			}
		},
		{
			"doubleSided":true,
			"name":"Material.022",
			"pbrMetallicRoughness":{
				"baseColorTexture":{
					"index":4
				},
				"metallicFactor":0,
				"roughnessFactor":0.5
			}
		},
		{
			"doubleSided":true,
			"name":"skin.003",
			"pbrMetallicRoughness":{
				"baseColorTexture":{
					"index":5
				},
				"metallicFactor":0,
				"roughnessFactor":0.5
			}
		},
		{
			"doubleSided":true,
			"name":"shirt.004",
			"pbrMetallicRoughness":{
				"baseColorTexture":{
					"index":6
				},
				"metallicFactor":0,
				"roughnessFactor":0.5
			}
		},
		{
			"doubleSided":true,
			"name":"Material.030",
			"pbrMetallicRoughness":{
				"baseColorTexture":{
					"index":7
				},
				"metallicFactor":0,
				"roughnessFactor":0.5
			}
		},
		{
			"doubleSided":true,
			"name":"pants.003",
			"pbrMetallicRoughness":{
				"baseColorTexture":{
					"index":8
				},
				"metallicFactor":0,
				"roughnessFactor":0.5
			}
		},
		{
			"doubleSided":true,
			"name":"brezrokavnik.003",
			"pbrMetallicRoughness":{
				"baseColorTexture":{
					"index":9
				},
				"metallicFactor":0,
				"roughnessFactor":0.5
			}
		}
	],
	"meshes":[
		{
			"name":"Cube",
			"primitives":[
				{
					"attributes":{
						"POSITION":0,
						"NORMAL":1,
						"TEXCOORD_0":2
					},
					"indices":3,
					"material":0
				}
			]
		},
		{
			"name":"Cylinder",
			"primitives":[
				{
					"attributes":{
						"POSITION":4,
						"NORMAL":5,
						"TEXCOORD_0":6
					},
					"indices":7,
					"material":1
				}
			]
		},
		{
			"name":"Torus.001",
			"primitives":[
				{
					"attributes":{
						"POSITION":8,
						"NORMAL":9,
						"TEXCOORD_0":10
					},
					"indices":11,
					"material":2
				}
			]
		},
		{
			"name":"Cube.019",
			"primitives":[
				{
					"attributes":{
						"POSITION":12,
						"NORMAL":13,
						"TEXCOORD_0":14
					},
					"indices":15,
					"material":3
				}
			]
		},
		{
			"name":"Cube.025",
			"primitives":[
				{
					"attributes":{
						"POSITION":16,
						"NORMAL":17,
						"TEXCOORD_0":18
					},
					"indices":15,
					"material":4
				}
			]
		},
		{
			"name":"Cube.006",
			"primitives":[
				{
					"attributes":{
						"POSITION":19,
						"NORMAL":20,
						"TEXCOORD_0":21
					},
					"indices":22,
					"material":5
				},
				{
					"attributes":{
						"POSITION":23,
						"NORMAL":24,
						"TEXCOORD_0":25
					},
					"indices":26,
					"material":6
				}
			]
		},
		{
			"name":"Cube.012",
			"primitives":[
				{
					"attributes":{
						"POSITION":27,
						"NORMAL":28,
						"TEXCOORD_0":29,
						"COLOR_0":30,
						"COLOR_1":31
					},
					"indices":32,
					"material":7
				}
			]
		},
		{
			"name":"Cube.009",
			"primitives":[
				{
					"attributes":{
						"POSITION":33,
						"NORMAL":34,
						"TEXCOORD_0":35
					},
					"indices":36,
					"material":8
				}
			]
		},
		{
			"name":"Cube.010",
			"primitives":[
				{
					"attributes":{
						"POSITION":37,
						"NORMAL":38,
						"TEXCOORD_0":39
					},
					"indices":40,
					"material":9
				}
			]
		}
	],
	"textures":[
		{
			"sampler":0,
			"source":0
		},
		{
			"sampler":0,
			"source":1
		},
		{
			"sampler":0,
			"source":0
		},
		{
			"sampler":1,
			"source":0
		},
		{
			"sampler":0,
			"source":2
		},
		{
			"sampler":0,
			"source":3
		},
		{
			"sampler":0,
			"source":4
		},
		{
			"sampler":0,
			"source":5
		},
		{
			"sampler":0,
			"source":6
		},
		{
			"sampler":0,
			"source":7
		}
	],
	"images":[
		{
			"mimeType":"image/png",
			"name":"Untitled",
			"uri":"Untitled.png"
		},
		{
			"mimeType":"image/png",
			"name":"Untitled",
			"uri":"Untitled-1.png"
		},
		{
			"mimeType":"image/png",
			"name":"Untitled",
			"uri":"Untitled-2.png"
		},
		{
			"mimeType":"image/png",
			"name":"Untitled-1",
			"uri":"Untitled-3.png"
		},
		{
			"mimeType":"image/png",
			"name":"Untitled-2",
			"uri":"Untitled-4.png"
		},
		{
			"mimeType":"image/png",
			"name":"Untitled",
			"uri":"Untitled-5.png"
		},
		{
			"mimeType":"image/png",
			"name":"Untitled-3",
			"uri":"Untitled-6.png"
		},
		{
			"mimeType":"image/png",
			"name":"Untitled-4",
			"uri":"Untitled-7.png"
		}
	],
	"accessors":[
		{
			"bufferView":0,
			"componentType":5126,
			"count":530,
			"max":[
				1,
				1,
				1
			],
			"min":[
				-1,
				-1,
				-1
			],
			"type":"VEC3"
		},
		{
			"bufferView":1,
			"componentType":5126,
			"count":530,
			"type":"VEC3"
		},
		{
			"bufferView":2,
			"componentType":5126,
			"count":530,
			"type":"VEC2"
		},
		{
			"bufferView":3,
			"componentType":5123,
			"count":2376,
			"type":"SCALAR"
		},
		{
			"bufferView":4,
			"componentType":5126,
			"count":192,
			"max":[
				1,
				1,
				1
			],
			"min":[
				-1,
				-1,
				-1
			],
			"type":"VEC3"
		},
		{
			"bufferView":5,
			"componentType":5126,
			"count":192,
			"type":"VEC3"
		},
		{
			"bufferView":6,
			"componentType":5126,
			"count":192,
			"type":"VEC2"
		},
		{
			"bufferView":7,
			"componentType":5123,
			"count":372,
			"type":"SCALAR"
		},
		{
			"bufferView":8,
			"componentType":5126,
			"count":452,
			"max":[
				1.25,
				0.25,
				3.503342628479004
			],
			"min":[
				-1.25,
				-0.25,
				-1.0825319290161133
			],
			"type":"VEC3"
		},
		{
			"bufferView":9,
			"componentType":5126,
			"count":452,
			"type":"VEC3"
		},
		{
			"bufferView":10,
			"componentType":5126,
			"count":452,
			"type":"VEC2"
		},
		{
			"bufferView":11,
			"componentType":5123,
			"count":840,
			"type":"SCALAR"
		},
		{
			"bufferView":12,
			"componentType":5126,
			"count":24,
			"max":[
				1,
				1,
				1
			],
			"min":[
				-1,
				-1,
				-1
			],
			"type":"VEC3"
		},
		{
			"bufferView":13,
			"componentType":5126,
			"count":24,
			"type":"VEC3"
		},
		{
			"bufferView":14,
			"componentType":5126,
			"count":24,
			"type":"VEC2"
		},
		{
			"bufferView":15,
			"componentType":5123,
			"count":36,
			"type":"SCALAR"
		},
		{
			"bufferView":16,
			"componentType":5126,
			"count":24,
			"max":[
				1,
				1,
				1
			],
			"min":[
				-1,
				-1,
				-1
			],
			"type":"VEC3"
		},
		{
			"bufferView":17,
			"componentType":5126,
			"count":24,
			"type":"VEC3"
		},
		{
			"bufferView":18,
			"componentType":5126,
			"count":24,
			"type":"VEC2"
		},
		{
			"bufferView":19,
			"componentType":5126,
			"count":3706,
			"max":[
				0.6486857533454895,
				-0.8638845682144165,
				0.3802056610584259
			],
			"min":[
				-0.7115400433540344,
				-3.1158928871154785,
				-0.3802056908607483
			],
			"type":"VEC3"
		},
		{
			"bufferView":20,
			"componentType":5126,
			"count":3706,
			"type":"VEC3"
		},
		{
			"bufferView":21,
			"componentType":5126,
			"count":3706,
			"type":"VEC2"
		},
		{
			"bufferView":22,
			"componentType":5123,
			"count":5616,
			"type":"SCALAR"
		},
		{
			"bufferView":23,
			"componentType":5126,
			"count":3689,
			"max":[
				0.6416584253311157,
				-1.786198616027832,
				0.49854063987731934
			],
			"min":[
				-0.7073057889938354,
				-2.8651936054229736,
				-0.1836586892604828
			],
			"type":"VEC3"
		},
		{
			"bufferView":24,
			"componentType":5126,
			"count":3689,
			"type":"VEC3"
		},
		{
			"bufferView":25,
			"componentType":5126,
			"count":3689,
			"type":"VEC2"
		},
		{
			"bufferView":26,
			"componentType":5123,
			"count":5880,
			"type":"SCALAR"
		},
		{
			"bufferView":27,
			"componentType":5126,
			"count":3098,
			"max":[
				0.7458010315895081,
				1.6885532140731812,
				0.487750768661499
			],
			"min":[
				-0.7976903915405273,
				-0.5284721851348877,
				-0.4974040687084198
			],
			"type":"VEC3"
		},
		{
			"bufferView":28,
			"componentType":5126,
			"count":3098,
			"type":"VEC3"
		},
		{
			"bufferView":29,
			"componentType":5126,
			"count":3098,
			"type":"VEC2"
		},
		{
			"bufferView":30,
			"componentType":5126,
			"count":3098,
			"type":"VEC3"
		},
		{
			"bufferView":31,
			"componentType":5123,
			"count":3098,
			"normalized":true,
			"type":"VEC4"
		},
		{
			"bufferView":32,
			"componentType":5123,
			"count":4704,
			"type":"SCALAR"
		},
		{
			"bufferView":33,
			"componentType":5126,
			"count":1102,
			"max":[
				0.3891068994998932,
				-2.4712514877319336,
				0.4504018723964691
			],
			"min":[
				-0.4038600027561188,
				-3.0033011436462402,
				-0.22021269798278809
			],
			"type":"VEC3"
		},
		{
			"bufferView":34,
			"componentType":5126,
			"count":1102,
			"type":"VEC3"
		},
		{
			"bufferView":35,
			"componentType":5126,
			"count":1102,
			"type":"VEC2"
		},
		{
			"bufferView":36,
			"componentType":5123,
			"count":1632,
			"type":"SCALAR"
		},
		{
			"bufferView":37,
			"componentType":5126,
			"count":914,
			"max":[
				0.6683189272880554,
				-1.747441291809082,
				0.5896382927894592
			],
			"min":[
				-0.6644823551177979,
				-2.6004090309143066,
				-0.23297211527824402
			],
			"type":"VEC3"
		},
		{
			"bufferView":38,
			"componentType":5126,
			"count":914,
			"type":"VEC3"
		},
		{
			"bufferView":39,
			"componentType":5126,
			"count":914,
			"type":"VEC2"
		},
		{
			"bufferView":40,
			"componentType":5123,
			"count":1344,
			"type":"SCALAR"
		}
	],
	"bufferViews":[
		{
			"buffer":0,
			"byteLength":6360,
			"byteOffset":0,
			"target":34962
		},
		{
			"buffer":0,
			"byteLength":6360,
			"byteOffset":6360,
			"target":34962
		},
		{
			"buffer":0,
			"byteLength":4240,
			"byteOffset":12720,
			"target":34962
		},
		{
			"buffer":0,
			"byteLength":4752,
			"byteOffset":16960,
			"target":34963
		},
		{
			"buffer":0,
			"byteLength":2304,
			"byteOffset":21712,
			"target":34962
		},
		{
			"buffer":0,
			"byteLength":2304,
			"byteOffset":24016,
			"target":34962
		},
		{
			"buffer":0,
			"byteLength":1536,
			"byteOffset":26320,
			"target":34962
		},
		{
			"buffer":0,
			"byteLength":744,
			"byteOffset":27856,
			"target":34963
		},
		{
			"buffer":0,
			"byteLength":5424,
			"byteOffset":28600,
			"target":34962
		},
		{
			"buffer":0,
			"byteLength":5424,
			"byteOffset":34024,
			"target":34962
		},
		{
			"buffer":0,
			"byteLength":3616,
			"byteOffset":39448,
			"target":34962
		},
		{
			"buffer":0,
			"byteLength":1680,
			"byteOffset":43064,
			"target":34963
		},
		{
			"buffer":0,
			"byteLength":288,
			"byteOffset":44744,
			"target":34962
		},
		{
			"buffer":0,
			"byteLength":288,
			"byteOffset":45032,
			"target":34962
		},
		{
			"buffer":0,
			"byteLength":192,
			"byteOffset":45320,
			"target":34962
		},
		{
			"buffer":0,
			"byteLength":72,
			"byteOffset":45512,
			"target":34963
		},
		{
			"buffer":0,
			"byteLength":288,
			"byteOffset":45584,
			"target":34962
		},
		{
			"buffer":0,
			"byteLength":288,
			"byteOffset":45872,
			"target":34962
		},
		{
			"buffer":0,
			"byteLength":192,
			"byteOffset":46160,
			"target":34962
		},
		{
			"buffer":0,
			"byteLength":44472,
			"byteOffset":46352,
			"target":34962
		},
		{
			"buffer":0,
			"byteLength":44472,
			"byteOffset":90824,
			"target":34962
		},
		{
			"buffer":0,
			"byteLength":29648,
			"byteOffset":135296,
			"target":34962
		},
		{
			"buffer":0,
			"byteLength":11232,
			"byteOffset":164944,
			"target":34963
		},
		{
			"buffer":0,
			"byteLength":44268,
			"byteOffset":176176,
			"target":34962
		},
		{
			"buffer":0,
			"byteLength":44268,
			"byteOffset":220444,
			"target":34962
		},
		{
			"buffer":0,
			"byteLength":29512,
			"byteOffset":264712,
			"target":34962
		},
		{
			"buffer":0,
			"byteLength":11760,
			"byteOffset":294224,
			"target":34963
		},
		{
			"buffer":0,
			"byteLength":37176,
			"byteOffset":305984,
			"target":34962
		},
		{
			"buffer":0,
			"byteLength":37176,
			"byteOffset":343160,
			"target":34962
		},
		{
			"buffer":0,
			"byteLength":24784,
			"byteOffset":380336,
			"target":34962
		},
		{
			"buffer":0,
			"byteLength":37176,
			"byteOffset":405120,
			"target":34962
		},
		{
			"buffer":0,
			"byteLength":24784,
			"byteOffset":442296,
			"target":34962
		},
		{
			"buffer":0,
			"byteLength":9408,
			"byteOffset":467080,
			"target":34963
		},
		{
			"buffer":0,
			"byteLength":13224,
			"byteOffset":476488,
			"target":34962
		},
		{
			"buffer":0,
			"byteLength":13224,
			"byteOffset":489712,
			"target":34962
		},
		{
			"buffer":0,
			"byteLength":8816,
			"byteOffset":502936,
			"target":34962
		},
		{
			"buffer":0,
			"byteLength":3264,
			"byteOffset":511752,
			"target":34963
		},
		{
			"buffer":0,
			"byteLength":10968,
			"byteOffset":515016,
			"target":34962
		},
		{
			"buffer":0,
			"byteLength":10968,
			"byteOffset":525984,
			"target":34962
		},
		{
			"buffer":0,
			"byteLength":7312,
			"byteOffset":536952,
			"target":34962
		},
		{
			"buffer":0,
			"byteLength":2688,
			"byteOffset":544264,
			"target":34963
		}
	],
	"samplers":[
		{
			"magFilter":9729,
			"minFilter":9987
		},
		{
			"magFilter":9729,
			"minFilter":9987,
			"wrapS":33071,
			"wrapT":33071
		}
	],
	"buffers":[
		{
			"byteLength":546952,
			"uri":"frodomap.bin"
		}
	]
}
