{
	"asset":{
		"generator":"Khronos glTF Blender I/O v4.3.47",
		"version":"2.0"
	},
	"scene":0,
	"scenes":[
		{
			"name":"Scene",
			"nodes":[
				0,
				1,
				2,
				3,
				4,
				5
			]
		}
	],
	"nodes":[
		{
			"mesh":0,
			"name":"Floor",
			"rotation":[
				0,
				0,
				-1,
				0
			],
			"scale":[
				-6.784854412078857,
				-0.21549475193023682,
				-5.356006145477295
			],
			"translation":[
				1.3275483846664429,
				0,
				0
			]
		},
		{
			"camera":0,
			"name":"Camera",
			"rotation":[
				-0.10452844202518463,
				0,
				0,
				0.9945219159126282
			],
			"translation":[
				-2.9033820629119873,
				2.1262366771698,
				5.145791053771973
			]
		},
		{
			"mesh":1,
			"name":"Trampoline",
			"rotation":[
				0,
				1,
				0,
				0
			],
			"scale":[
				-0.9453953504562378,
				-0.03987152501940727,
				-0.9453953504562378
			],
			"translation":[
				3.2757842540740967,
				0.7080867290496826,
				-2.143435478210449
			]
		},
		{
			"mesh":2,
			"name":"key",
			"rotation":[
				0.7071068286895752,
				0.7071068286895752,
				8.241015166277066e-06,
				8.241016075771768e-06
			],
			"scale":[
				-0.13568724691867828,
				-0.13568724691867828,
				-0.13568724691867828
			],
			"translation":[
				6.8725361824035645,
				3.7111175060272217,
				-4.239201068878174
			]
		},
		{
			"mesh":3,
			"name":"metarig",
			"scale":[
				0.20612390339374542,
				0.20612390339374542,
				0.20612390339374542
			],
			"translation":[
				-1.8674973249435425,
				0.4093160033226013,
				-2.883439064025879
			]
		},
		{
			"mesh":4,
			"name":"MovingPlatform",
			"rotation":[
				0,
				1,
				0,
				0
			],
			"scale":[
				-0.747752845287323,
				-0.02161742001771927,
				-0.8219308853149414
			],
			"translation":[
				4.447509765625,
				2.804471969604492,
				-0.9770513772964478
			]
		}
	],
	"cameras":[
		{
			"name":"Camera",
			"perspective":{
				"aspectRatio":1.7777777777777777,
				"yfov":0.39959648408210363,
				"zfar":100,
				"znear":0.10000000149011612
			},
			"type":"perspective"
		}
	],
	"materials":[
		{
			"doubleSided":true,
			"name":"Material",
			"pbrMetallicRoughness":{
				"baseColorTexture":{
					"index":0
				},
				"metallicFactor":0,
				"roughnessFactor":0.5
			}
		},
		{
			"doubleSided":true,
			"name":"Material.017",
			"pbrMetallicRoughness":{
				"baseColorTexture":{
					"index":1
				},
				"metallicFactor":0,
				"roughnessFactor":0.5
			}
		},
		{
			"doubleSided":true,
			"name":"Material.001",
			"pbrMetallicRoughness":{
				"baseColorTexture":{
					"index":2
				},
				"metallicFactor":0,
				"roughnessFactor":0.5
			}
		},
		{
			"doubleSided":true,
			"name":"Material.023",
			"pbrMetallicRoughness":{
				"baseColorTexture":{
					"index":3
				},
				"metallicFactor":0,
				"roughnessFactor":0.5
			}
		},
		{
			"doubleSided":true,
			"name":"Material.022",
			"pbrMetallicRoughness":{
				"baseColorTexture":{
					"index":4
				},
				"metallicFactor":0,
				"roughnessFactor":0.5
			}
		}
	],
	"meshes":[
		{
			"name":"Cube",
			"primitives":[
				{
					"attributes":{
						"POSITION":0,
						"NORMAL":1,
						"TEXCOORD_0":2
					},
					"indices":3,
					"material":0
				}
			]
		},
		{
			"name":"Cylinder",
			"primitives":[
				{
					"attributes":{
						"POSITION":4,
						"NORMAL":5,
						"TEXCOORD_0":6
					},
					"indices":7,
					"material":1
				}
			]
		},
		{
			"name":"Torus.001",
			"primitives":[
				{
					"attributes":{
						"POSITION":8,
						"NORMAL":9,
						"TEXCOORD_0":10
					},
					"indices":11,
					"material":2
				}
			]
		},
		{
			"name":"Cube.019",
			"primitives":[
				{
					"attributes":{
						"POSITION":12,
						"NORMAL":13,
						"TEXCOORD_0":14
					},
					"indices":15,
					"material":3
				}
			]
		},
		{
			"name":"Cube.025",
			"primitives":[
				{
					"attributes":{
						"POSITION":16,
						"NORMAL":17,
						"TEXCOORD_0":18
					},
					"indices":15,
					"material":4
				}
			]
		}
	],
	"textures":[
		{
			"sampler":0,
			"source":0
		},
		{
			"sampler":0,
			"source":1
		},
		{
			"sampler":0,
			"source":0
		},
		{
			"sampler":1,
			"source":0
		},
		{
			"sampler":0,
			"source":2
		}
	],
	"images":[
		{
			"mimeType":"image/png",
			"name":"Untitled",
			"uri":"Untitled.png"
		},
		{
			"mimeType":"image/png",
			"name":"Untitled",
			"uri":"Untitled-1.png"
		},
		{
			"mimeType":"image/png",
			"name":"Untitled",
			"uri":"Untitled-2.png"
		}
	],
	"accessors":[
		{
			"bufferView":0,
			"componentType":5126,
			"count":530,
			"max":[
				1,
				1,
				1
			],
			"min":[
				-1,
				-1,
				-1
			],
			"type":"VEC3"
		},
		{
			"bufferView":1,
			"componentType":5126,
			"count":530,
			"type":"VEC3"
		},
		{
			"bufferView":2,
			"componentType":5126,
			"count":530,
			"type":"VEC2"
		},
		{
			"bufferView":3,
			"componentType":5123,
			"count":2376,
			"type":"SCALAR"
		},
		{
			"bufferView":4,
			"componentType":5126,
			"count":192,
			"max":[
				1,
				1,
				1
			],
			"min":[
				-1,
				-1,
				-1
			],
			"type":"VEC3"
		},
		{
			"bufferView":5,
			"componentType":5126,
			"count":192,
			"type":"VEC3"
		},
		{
			"bufferView":6,
			"componentType":5126,
			"count":192,
			"type":"VEC2"
		},
		{
			"bufferView":7,
			"componentType":5123,
			"count":372,
			"type":"SCALAR"
		},
		{
			"bufferView":8,
			"componentType":5126,
			"count":452,
			"max":[
				1.25,
				0.25,
				3.503342628479004
			],
			"min":[
				-1.25,
				-0.25,
				-1.0825319290161133
			],
			"type":"VEC3"
		},
		{
			"bufferView":9,
			"componentType":5126,
			"count":452,
			"type":"VEC3"
		},
		{
			"bufferView":10,
			"componentType":5126,
			"count":452,
			"type":"VEC2"
		},
		{
			"bufferView":11,
			"componentType":5123,
			"count":840,
			"type":"SCALAR"
		},
		{
			"bufferView":12,
			"componentType":5126,
			"count":24,
			"max":[
				1,
				1,
				1
			],
			"min":[
				-1,
				-1,
				-1
			],
			"type":"VEC3"
		},
		{
			"bufferView":13,
			"componentType":5126,
			"count":24,
			"type":"VEC3"
		},
		{
			"bufferView":14,
			"componentType":5126,
			"count":24,
			"type":"VEC2"
		},
		{
			"bufferView":15,
			"componentType":5123,
			"count":36,
			"type":"SCALAR"
		},
		{
			"bufferView":16,
			"componentType":5126,
			"count":24,
			"max":[
				1,
				1,
				1
			],
			"min":[
				-1,
				-1,
				-1
			],
			"type":"VEC3"
		},
		{
			"bufferView":17,
			"componentType":5126,
			"count":24,
			"type":"VEC3"
		},
		{
			"bufferView":18,
			"componentType":5126,
			"count":24,
			"type":"VEC2"
		}
	],
	"bufferViews":[
		{
			"buffer":0,
			"byteLength":6360,
			"byteOffset":0,
			"target":34962
		},
		{
			"buffer":0,
			"byteLength":6360,
			"byteOffset":6360,
			"target":34962
		},
		{
			"buffer":0,
			"byteLength":4240,
			"byteOffset":12720,
			"target":34962
		},
		{
			"buffer":0,
			"byteLength":4752,
			"byteOffset":16960,
			"target":34963
		},
		{
			"buffer":0,
			"byteLength":2304,
			"byteOffset":21712,
			"target":34962
		},
		{
			"buffer":0,
			"byteLength":2304,
			"byteOffset":24016,
			"target":34962
		},
		{
			"buffer":0,
			"byteLength":1536,
			"byteOffset":26320,
			"target":34962
		},
		{
			"buffer":0,
			"byteLength":744,
			"byteOffset":27856,
			"target":34963
		},
		{
			"buffer":0,
			"byteLength":5424,
			"byteOffset":28600,
			"target":34962
		},
		{
			"buffer":0,
			"byteLength":5424,
			"byteOffset":34024,
			"target":34962
		},
		{
			"buffer":0,
			"byteLength":3616,
			"byteOffset":39448,
			"target":34962
		},
		{
			"buffer":0,
			"byteLength":1680,
			"byteOffset":43064,
			"target":34963
		},
		{
			"buffer":0,
			"byteLength":288,
			"byteOffset":44744,
			"target":34962
		},
		{
			"buffer":0,
			"byteLength":288,
			"byteOffset":45032,
			"target":34962
		},
		{
			"buffer":0,
			"byteLength":192,
			"byteOffset":45320,
			"target":34962
		},
		{
			"buffer":0,
			"byteLength":72,
			"byteOffset":45512,
			"target":34963
		},
		{
			"buffer":0,
			"byteLength":288,
			"byteOffset":45584,
			"target":34962
		},
		{
			"buffer":0,
			"byteLength":288,
			"byteOffset":45872,
			"target":34962
		},
		{
			"buffer":0,
			"byteLength":192,
			"byteOffset":46160,
			"target":34962
		}
	],
	"samplers":[
		{
			"magFilter":9729,
			"minFilter":9987
		},
		{
			"magFilter":9729,
			"minFilter":9987,
			"wrapS":33071,
			"wrapT":33071
		}
	],
	"buffers":[
		{
			"byteLength":46352,
			"uri":"frodomap.bin"
		}
	]
}
